<svg width="33" height="30" viewBox="0 0 33 30" fill="none" xmlns="http://www.w3.org/2000/svg">
<path d="M10.5946 14.5574L10.5941 14.5588C10.2223 15.5584 9.53265 16.4068 8.62993 16.9655L8.6297 16.9657C7.57241 17.6196 6.72322 18.5795 6.19116 19.7285C5.65901 20.8777 5.46871 22.1631 5.64527 23.4239L10.5946 14.5574ZM10.5946 14.5574C11.0515 13.3232 11.8634 12.2642 12.9187 11.5186C13.9735 10.7733 15.2224 10.3755 16.4997 10.375L10.5946 14.5574ZM11.9165 29H11.9166C12.8396 28.9999 13.7515 28.7855 14.5836 28.372L14.588 28.3698C15.1836 28.0774 15.8371 27.9251 16.4998 27.9252C17.1625 27.9252 17.816 28.0776 18.4116 28.37L18.4159 28.3721C19.2479 28.7856 20.1597 28.9999 21.0827 29H21.0828C22.6007 29.0003 24.0713 28.4409 25.2241 27.4191C26.3775 26.3967 27.1358 24.9794 27.3538 23.4249C27.5306 22.164 27.3404 20.8784 26.8083 19.7291C26.2764 18.5799 25.4272 17.6199 24.3699 16.9658L24.3697 16.9656C23.4672 16.407 22.7776 15.5586 22.406 14.5592L22.4055 14.5577C21.9487 13.3235 21.1368 12.2644 20.0815 11.5187C19.0266 10.7733 17.7776 10.3755 16.5003 10.375L11.9165 29ZM11.9165 29C10.3984 29.0003 8.92768 28.4408 7.77477 27.4187C6.62131 26.3962 5.86312 24.9786 5.64528 23.424L11.9165 29ZM12.4729 6.04238L13.0371 6.86801L12.4729 6.04238C12.0349 6.3417 11.5223 6.5 11 6.5C10.3001 6.5 9.6242 6.21586 9.12228 5.70253C8.61962 5.18845 8.33334 4.48651 8.33334 3.75C8.33334 3.20117 8.49257 2.66643 8.78845 2.21356C9.08417 1.76093 9.50214 1.41159 9.9869 1.20624C10.4714 1.00099 11.0032 0.947665 11.516 1.05199C12.0289 1.15634 12.5033 1.41451 12.8777 1.79747C13.2524 2.18067 13.51 2.6716 13.6146 3.20933C13.7192 3.74715 13.6653 4.3044 13.4607 4.80968C13.2561 5.31477 12.9112 5.74287 12.4729 6.04238ZM23.4729 6.04238C23.0349 6.3417 22.5224 6.5 22 6.5C21.3001 6.5 20.6242 6.21586 20.1223 5.70253C19.6196 5.18845 19.3333 4.48651 19.3333 3.75C19.3333 3.20117 19.4926 2.66643 19.7884 2.21356C20.0842 1.76093 20.5021 1.41159 20.9869 1.20624C21.4714 1.00099 22.0032 0.947665 22.516 1.05199C23.0289 1.15634 23.5033 1.4145 23.8777 1.79747C24.2524 2.18067 24.51 2.6716 24.6146 3.20933C24.7192 3.74716 24.6653 4.3044 24.4607 4.80967C24.2561 5.31477 23.9112 5.74287 23.4729 6.04238ZM5.87822 9.71356C6.1741 10.1664 6.33334 10.7012 6.33334 11.25C6.33334 11.9865 6.04705 12.6884 5.54439 13.2025C5.04247 13.7159 4.36657 14 3.66667 14C3.14432 14 2.63179 13.8417 2.19379 13.5424C1.7555 13.2429 1.41054 12.8148 1.20598 12.3097C1.00133 11.8044 0.947459 11.2472 1.05206 10.7093C1.15665 10.1716 1.41426 9.68067 1.78895 9.29747C2.1634 8.91451 2.63773 8.65634 3.15069 8.55198C3.66349 8.44766 4.19527 8.50099 4.67977 8.70624C5.16453 8.91159 5.5825 9.26092 5.87822 9.71356ZM27.8605 8.95762C28.2985 8.6583 28.811 8.5 29.3333 8.5C30.0332 8.5 30.7091 8.78414 31.2111 9.29747C31.7137 9.81155 32 10.5135 32 11.25C32 11.7988 31.8408 12.3336 31.5449 12.7864C31.2492 13.2391 30.8312 13.5884 30.3464 13.7938C29.8619 13.999 29.3302 14.0523 28.8174 13.948C28.3044 13.8437 27.8301 13.5855 27.4556 13.2025C27.0809 12.8193 26.8233 12.3284 26.7187 11.7907C26.6141 11.2528 26.668 10.6956 26.8726 10.1903C27.0772 9.68523 27.4222 9.25713 27.8605 8.95762Z" stroke="#00B7B7" stroke-width="2"/>
</svg>
