<svg width="33" height="30" viewBox="0 0 33 30" fill="none" xmlns="http://www.w3.org/2000/svg">
<mask id="path-1-inside-1" fill="white">
<path d="M22 7.5C22.7252 7.5 23.4341 7.28007 24.0371 6.86801C24.6401 6.45596 25.11 5.87029 25.3876 5.18506C25.6651 4.49984 25.7377 3.74584 25.5962 3.01841C25.4547 2.29098 25.1055 1.6228 24.5927 1.09835C24.0799 0.573904 23.4266 0.216751 22.7153 0.0720569C22.0041 -0.0726377 21.2668 0.0016248 20.5968 0.285453C19.9268 0.569282 19.3542 1.04993 18.9513 1.66661C18.5484 2.2833 18.3333 3.00832 18.3333 3.75C18.3333 4.74456 18.7196 5.69839 19.4073 6.40165C20.0949 7.10491 21.0275 7.5 22 7.5ZM7.33334 11.25C7.33334 10.5083 7.11829 9.7833 6.71539 9.16661C6.31249 8.54993 5.73984 8.06928 5.06984 7.78545C4.39985 7.50162 3.6626 7.42736 2.95134 7.57206C2.24007 7.71675 1.58674 8.0739 1.07394 8.59835C0.561151 9.1228 0.211935 9.79098 0.0704556 10.5184C-0.0710235 11.2458 0.0015887 11.9998 0.27911 12.6851C0.556631 13.3703 1.0266 13.956 1.62958 14.368C2.23256 14.7801 2.94147 15 3.66667 15C4.63913 15 5.57176 14.6049 6.25939 13.9016C6.94703 13.1984 7.33334 12.2446 7.33334 11.25ZM29.3333 7.5C28.6081 7.5 27.8992 7.71993 27.2962 8.13199C26.6933 8.54405 26.2233 9.12971 25.9458 9.81494C25.6683 10.5002 25.5956 11.2542 25.7371 11.9816C25.8786 12.709 26.2278 13.3772 26.7406 13.9016C27.2534 14.4261 27.9067 14.7833 28.618 14.9279C29.3293 15.0726 30.0665 14.9984 30.7365 14.7145C31.4065 14.4307 31.9792 13.9501 32.3821 13.3334C32.785 12.7167 33 11.9917 33 11.25C33 10.2554 32.6137 9.30161 31.9261 8.59835C31.2384 7.89509 30.3058 7.5 29.3333 7.5ZM11 7.5C11.7252 7.5 12.4341 7.28007 13.0371 6.86801C13.6401 6.45596 14.11 5.87029 14.3876 5.18506C14.6651 4.49984 14.7377 3.74584 14.5962 3.01841C14.4547 2.29098 14.1055 1.6228 13.5927 1.09835C13.0799 0.573904 12.4266 0.216751 11.7153 0.0720569C11.0041 -0.0726377 10.2668 0.0016248 9.59683 0.285453C8.92683 0.569282 8.35418 1.04993 7.95128 1.66661C7.54838 2.2833 7.33334 3.00832 7.33334 3.75C7.33334 4.74456 7.71964 5.69839 8.40728 6.40165C9.09491 7.10491 10.0275 7.5 11 7.5ZM16.5 9.375C15.0143 9.37542 13.5639 9.83822 12.3416 10.7019C11.1193 11.5655 10.1829 12.7892 9.65681 14.2102C9.36137 15.0046 8.81466 15.6752 8.10367 16.1152C6.87768 16.8735 5.89698 17.984 5.28373 19.3083C4.67048 20.6326 4.4518 22.1122 4.65495 23.5627C4.90534 25.3498 5.77752 26.9846 7.11141 28.167C8.44531 29.3495 10.1514 30.0003 11.9167 30C12.9948 29.9999 14.0589 29.7495 15.0286 29.2675C15.4877 29.0421 15.9905 28.9251 16.4998 28.9252C17.009 28.9252 17.5118 29.0422 17.9709 29.2676C18.9406 29.7495 20.0045 29.9999 21.0826 30C22.8476 30.0003 24.5536 29.3496 25.8874 28.1674C27.2213 26.9852 28.0935 25.3507 28.3441 23.5638C28.5475 22.1132 28.329 20.6335 27.7158 19.309C27.1027 17.9845 26.122 16.8738 24.896 16.1153C24.1852 15.6754 23.6386 15.0049 23.3433 14.2106C22.8173 12.7895 21.8809 11.5658 20.6586 10.702C19.4362 9.83827 17.9858 9.37542 16.5 9.375Z"/>
</mask>
<path d="M22 7.5C22.7252 7.5 23.4341 7.28007 24.0371 6.86801C24.6401 6.45596 25.11 5.87029 25.3876 5.18506C25.6651 4.49984 25.7377 3.74584 25.5962 3.01841C25.4547 2.29098 25.1055 1.6228 24.5927 1.09835C24.0799 0.573904 23.4266 0.216751 22.7153 0.0720569C22.0041 -0.0726377 21.2668 0.0016248 20.5968 0.285453C19.9268 0.569282 19.3542 1.04993 18.9513 1.66661C18.5484 2.2833 18.3333 3.00832 18.3333 3.75C18.3333 4.74456 18.7196 5.69839 19.4073 6.40165C20.0949 7.10491 21.0275 7.5 22 7.5ZM7.33334 11.25C7.33334 10.5083 7.11829 9.7833 6.71539 9.16661C6.31249 8.54993 5.73984 8.06928 5.06984 7.78545C4.39985 7.50162 3.6626 7.42736 2.95134 7.57206C2.24007 7.71675 1.58674 8.0739 1.07394 8.59835C0.561151 9.1228 0.211935 9.79098 0.0704556 10.5184C-0.0710235 11.2458 0.0015887 11.9998 0.27911 12.6851C0.556631 13.3703 1.0266 13.956 1.62958 14.368C2.23256 14.7801 2.94147 15 3.66667 15C4.63913 15 5.57176 14.6049 6.25939 13.9016C6.94703 13.1984 7.33334 12.2446 7.33334 11.25ZM29.3333 7.5C28.6081 7.5 27.8992 7.71993 27.2962 8.13199C26.6933 8.54405 26.2233 9.12971 25.9458 9.81494C25.6683 10.5002 25.5956 11.2542 25.7371 11.9816C25.8786 12.709 26.2278 13.3772 26.7406 13.9016C27.2534 14.4261 27.9067 14.7833 28.618 14.9279C29.3293 15.0726 30.0665 14.9984 30.7365 14.7145C31.4065 14.4307 31.9792 13.9501 32.3821 13.3334C32.785 12.7167 33 11.9917 33 11.25C33 10.2554 32.6137 9.30161 31.9261 8.59835C31.2384 7.89509 30.3058 7.5 29.3333 7.5ZM11 7.5C11.7252 7.5 12.4341 7.28007 13.0371 6.86801C13.6401 6.45596 14.11 5.87029 14.3876 5.18506C14.6651 4.49984 14.7377 3.74584 14.5962 3.01841C14.4547 2.29098 14.1055 1.6228 13.5927 1.09835C13.0799 0.573904 12.4266 0.216751 11.7153 0.0720569C11.0041 -0.0726377 10.2668 0.0016248 9.59683 0.285453C8.92683 0.569282 8.35418 1.04993 7.95128 1.66661C7.54838 2.2833 7.33334 3.00832 7.33334 3.75C7.33334 4.74456 7.71964 5.69839 8.40728 6.40165C9.09491 7.10491 10.0275 7.5 11 7.5ZM16.5 9.375C15.0143 9.37542 13.5639 9.83822 12.3416 10.7019C11.1193 11.5655 10.1829 12.7892 9.65681 14.2102C9.36137 15.0046 8.81466 15.6752 8.10367 16.1152C6.87768 16.8735 5.89698 17.984 5.28373 19.3083C4.67048 20.6326 4.4518 22.1122 4.65495 23.5627C4.90534 25.3498 5.77752 26.9846 7.11141 28.167C8.44531 29.3495 10.1514 30.0003 11.9167 30C12.9948 29.9999 14.0589 29.7495 15.0286 29.2675C15.4877 29.0421 15.9905 28.9251 16.4998 28.9252C17.009 28.9252 17.5118 29.0422 17.9709 29.2676C18.9406 29.7495 20.0045 29.9999 21.0826 30C22.8476 30.0003 24.5536 29.3496 25.8874 28.1674C27.2213 26.9852 28.0935 25.3507 28.3441 23.5638C28.5475 22.1132 28.329 20.6335 27.7158 19.309C27.1027 17.9845 26.122 16.8738 24.896 16.1153C24.1852 15.6754 23.6386 15.0049 23.3433 14.2106C22.8173 12.7895 21.8809 11.5658 20.6586 10.702C19.4362 9.83827 17.9858 9.37542 16.5 9.375Z" stroke="#00B7B7" stroke-width="4" mask="url(#path-1-inside-1)"/>
</svg>
