<svg width="49" height="35" viewBox="0 0 49 35" fill="none" xmlns="http://www.w3.org/2000/svg">
<path d="M19.4329 9.68543C19.8619 9.42837 20.1919 9.03664 20.3702 8.57256C20.6876 7.74244 21.2528 7.02761 21.9904 6.52307C22.7281 6.01854 23.6034 5.74818 24.5 5.74794M19.4329 9.68543L18.3413 13.8929C18.2471 13.2419 18.3484 12.5776 18.6331 11.9823C18.918 11.3869 19.3742 10.8861 19.9466 10.5434L19.9468 10.5433C20.5663 10.1721 21.0447 9.60527 21.3036 8.9312L21.3042 8.92977C21.5486 8.29079 21.9842 7.73885 22.555 7.34848C23.1257 6.95812 23.804 6.74824 24.4997 6.74794L24.5 5.74794M19.4329 9.68543C18.693 10.1284 18.1011 10.7771 17.731 11.5508M19.4329 9.68543L17.731 11.5508M24.5 5.74794L24.5003 6.74794M24.5 5.74794C25.3966 5.74818 26.272 6.01857 27.0096 6.52316L24.5003 6.74794M24.5003 6.74794C25.196 6.74824 25.8743 6.95815 26.4451 7.34854C27.0158 7.73895 27.4515 8.29094 27.6958 8.92996L27.6964 8.9314C27.9553 9.60539 28.4335 10.1722 29.0529 10.5433L29.0531 10.5434C29.6255 10.8862 30.0817 11.3871 30.3665 11.9826C30.6512 12.578 30.7524 13.2424 30.6581 13.8934C30.5418 14.6964 30.1366 15.4331 29.5141 15.9672C28.8913 16.5015 28.0931 16.7968 27.2657 16.7967H27.2656C26.7648 16.7966 26.2708 16.684 25.8211 16.4677L25.8169 16.4656C25.4055 16.2701 24.9554 16.1688 24.4999 16.1688C24.0444 16.1687 23.5943 16.27 23.1828 16.4655L23.1785 16.4676C22.7288 16.684 22.2348 16.7966 21.7339 16.7967H21.7338C20.9063 16.7968 20.1081 16.5014 19.4853 15.967C18.8627 15.4328 18.4575 14.696 18.3413 13.8929L24.5003 6.74794ZM17.731 11.5508C17.361 12.3244 17.229 13.1888 17.3516 14.0361L17.731 11.5508ZM26.9581 3.30031L26.2545 4.01096L26.9581 3.30031C26.7317 3.07622 26.6064 2.77444 26.6064 2.46192C26.6064 2.22868 26.6762 1.99983 26.8082 1.80428C26.9403 1.6086 27.129 1.45457 27.3518 1.36323C27.5747 1.27184 27.8204 1.24777 28.0577 1.29449C28.2949 1.3412 28.5114 1.45624 28.6803 1.62353C28.8492 1.79071 28.9631 2.00248 29.0091 2.23152C29.0551 2.4605 29.0316 2.69795 28.9411 2.91428C28.8505 3.13071 28.6965 3.31733 28.4969 3.44937C28.2971 3.58148 28.0613 3.6526 27.8192 3.6526C27.4943 3.6526 27.1847 3.52473 26.9581 3.30031ZM31.5671 5.85583L31.0154 5.02179L31.5672 5.85583C31.7669 5.72372 32.0027 5.6526 32.2448 5.6526C32.5697 5.6526 32.8793 5.78046 33.106 6.00488C33.3323 6.22897 33.4576 6.53075 33.4576 6.84327C33.4576 7.07652 33.3878 7.30536 33.2558 7.50092C33.1237 7.6966 32.935 7.85062 32.7122 7.94197C32.4893 8.03335 32.2436 8.05742 32.0063 8.0107C31.7691 7.964 31.5526 7.84895 31.3837 7.68167L30.6801 8.39232L31.3837 7.68166C31.2148 7.51448 31.1009 7.30271 31.0549 7.07367C31.0089 6.84469 31.0324 6.60724 31.1229 6.39091L30.2004 6.00494L31.123 6.39091C31.2135 6.17448 31.3675 5.98787 31.5671 5.85583ZM17.7662 6.18563C17.8982 6.38119 17.968 6.61003 17.968 6.84327C17.968 7.1558 17.8427 7.45758 17.6163 7.68167C17.3896 7.90609 17.08 8.03395 16.7552 8.03395C16.5131 8.03395 16.2772 7.96283 16.0775 7.83072C15.8779 7.69868 15.7239 7.51207 15.6333 7.29563C15.5428 7.07931 15.5193 6.84186 15.5653 6.61288C15.6113 6.38384 15.7251 6.17206 15.894 6.00488C16.063 5.83759 16.2795 5.72255 16.5167 5.67585C16.7539 5.62913 16.9997 5.65319 17.2226 5.74458C17.4453 5.83593 17.6341 5.98995 17.7662 6.18563L18.595 5.6262L17.7662 6.18563ZM21.8584 3.44937C21.6587 3.58148 21.4229 3.6526 21.1808 3.6526C20.8559 3.6526 20.5463 3.52473 20.3196 3.30031C20.0933 3.07622 19.968 2.77444 19.968 2.46192C19.968 2.22868 20.0378 1.99983 20.1698 1.80428C20.3018 1.6086 20.4906 1.45457 20.7134 1.36323C20.9362 1.27184 21.182 1.24777 21.4193 1.29449C21.6564 1.3412 21.8729 1.45624 22.0419 1.62353C22.2108 1.79071 22.3246 2.00248 22.3707 2.23152L23.3306 2.03866L22.3707 2.23153C22.4167 2.4605 22.3931 2.69795 22.3026 2.91428L23.2251 3.30026L22.3026 2.91428C22.2121 3.13071 22.058 3.31733 21.8584 3.44937Z" stroke="#00B7B7" stroke-width="2"/>
<path d="M10.0648 31.5073V33.249C10.0648 33.514 10.276 33.7289 10.5366 33.7289H20.4435C20.704 33.7289 20.9153 33.514 20.9153 33.249V31.3104L20.1112 23.3651C20.0975 23.2298 20.028 23.1067 19.9199 23.0266L10.7148 16.1967C10.332 15.9127 9.80886 15.9275 9.4421 16.2327C9.05173 16.5576 8.94648 17.1204 9.19229 17.5684L10.8851 20.6535C11.1083 21.0604 10.688 21.5195 10.2732 21.322L6.32662 19.4429C6.1608 19.3639 6.05486 19.1945 6.05486 19.0083V11.5155C5.48875 9.02017 3.14569 8.87621 2.04492 9.11615L1.00166 21.7327C0.990109 21.8724 1.0392 22.0103 1.13603 22.11L9.92878 31.1702C10.0159 31.26 10.0648 31.3811 10.0648 31.5073Z" stroke="#00B7B7" stroke-width="2"/>
<path d="M38.9352 31.5073V33.249C38.9352 33.514 38.724 33.7289 38.4634 33.7289H28.5565C28.296 33.7289 28.0847 33.514 28.0847 33.249V31.3104L28.8888 23.3651C28.9025 23.2298 28.972 23.1067 29.0801 23.0266L38.2852 16.1967C38.668 15.9127 39.1911 15.9275 39.5579 16.2327C39.9483 16.5576 40.0535 17.1204 39.8077 17.5684L38.1149 20.6535C37.8917 21.0604 38.312 21.5195 38.7268 21.322L42.6734 19.4429C42.8392 19.3639 42.9451 19.1945 42.9451 19.0083V11.5155C43.5112 9.02017 45.8543 8.87621 46.9551 9.11615L47.9983 21.7327C48.0099 21.8724 47.9608 22.0103 47.864 22.11L39.0712 31.1702C38.9841 31.26 38.9352 31.3811 38.9352 31.5073Z" stroke="#00B7B7" stroke-width="2"/>
</svg>
