<svg width="46" height="46" viewBox="0 0 46 46" fill="none" xmlns="http://www.w3.org/2000/svg">
<circle cx="23" cy="23" r="22" stroke="#00B7B7" stroke-width="2" stroke-linecap="round" stroke-linejoin="round" stroke-dasharray="8 8"/>
<path d="M18.5479 22.7107L18.5474 22.7121C18.2403 23.5505 17.6692 24.266 16.9168 24.7389L16.9166 24.739C16.1198 25.2394 15.4767 25.976 15.0728 26.8616C14.6688 27.7474 14.5238 28.7397 14.6581 29.7135L18.5479 22.7107ZM18.5479 22.7107C18.895 21.7586 19.5106 20.9451 20.3066 20.374C21.102 19.8034 22.0412 19.5004 22.9997 19.5L18.5479 22.7107ZM19.3887 34H19.3888C20.0806 33.9999 20.7648 33.8368 21.3902 33.5212L21.3946 33.519C21.8939 33.2702 22.4426 33.1401 22.9999 33.1401C23.5571 33.1402 24.1058 33.2703 24.6051 33.5192L24.6094 33.5213C25.2347 33.8369 25.9189 33.9999 26.6106 34H26.6107C27.7497 34.0002 28.8566 33.5742 29.7272 32.7906C30.5987 32.0063 31.1752 30.9152 31.3411 29.7143C31.4756 28.7404 31.3308 27.748 30.9268 26.862C30.523 25.9763 29.8799 25.2396 29.0831 24.7391L29.0829 24.7389C28.3307 24.2662 27.7597 23.5507 27.4527 22.7124L27.4522 22.711C27.1051 21.7589 26.4895 20.9453 25.6935 20.3741C24.8981 19.8035 23.9588 19.5004 23.0003 19.5L19.3887 34ZM19.3887 34C18.2496 34.0002 17.1426 33.5741 16.2719 32.7904C15.4004 32.0059 14.8239 30.9147 14.6582 29.7135L19.3887 34ZM22.9998 34.1401C23.4011 34.1402 23.7972 34.2338 24.1589 34.4141L19.3889 35C20.2383 34.9999 21.0767 34.7996 21.8407 34.414C22.2025 34.2337 22.5986 34.1401 22.9998 34.1401ZM20.4068 14.7776L21.3357 15.1481L20.4068 14.7776C20.2593 15.1474 20.0119 15.4575 19.7016 15.6728C19.3917 15.8878 19.0317 16 18.6667 16C18.1781 16 17.7016 15.7988 17.3442 15.4277C16.9856 15.0553 16.7778 14.5424 16.7778 14C16.7778 13.5962 16.8933 13.2044 17.1056 12.8744C17.3177 12.5447 17.6153 12.2937 17.9563 12.147C18.2968 12.0005 18.6691 11.9629 19.028 12.037C19.3871 12.1112 19.7223 12.2953 19.9891 12.5723C20.2563 12.8498 20.4422 13.2077 20.5179 13.6029C20.5936 13.9981 20.5545 14.4074 20.4068 14.7776ZM28.3682 15.6728C28.0584 15.8878 27.6983 16 27.3333 16C26.8448 16 26.3683 15.7988 26.0109 15.4277C25.6523 15.0553 25.4444 14.5424 25.4444 14C25.4444 13.5962 25.5599 13.2044 25.7723 12.8744C25.9844 12.5447 26.282 12.2937 26.6229 12.147C26.9635 12.0005 27.3358 11.9629 27.6946 12.037C28.0538 12.1112 28.389 12.2953 28.6558 12.5723C28.9229 12.8498 29.1089 13.2077 29.1846 13.6029C29.2603 13.9981 29.2211 14.4074 29.0735 14.7776C28.926 15.1474 28.6785 15.4575 28.3682 15.6728ZM14.45 18.8744C14.6623 19.2044 14.7778 19.5962 14.7778 20C14.7778 20.5424 14.57 21.0553 14.2113 21.4277C13.8539 21.7988 13.3774 22 12.8889 22C12.5239 22 12.1638 21.8878 11.854 21.6728C11.5437 21.4575 11.2963 21.1474 11.1487 20.7776C11.0011 20.4074 10.9619 19.9981 11.0377 19.6029C11.1133 19.2077 11.2993 18.8498 11.5665 18.5723C11.8332 18.2953 12.1685 18.1111 12.5276 18.037C12.8864 17.9629 13.2588 18.0005 13.5993 18.147C13.9403 18.2937 14.2378 18.5447 14.45 18.8744ZM32.0762 18.3272C32.386 18.1122 32.7461 18 33.1111 18C33.5996 18 34.0761 18.2012 34.4335 18.5723C34.7922 18.9447 35 19.4576 35 20C35 20.4038 34.8845 20.7956 34.6722 21.1256C34.4601 21.4553 34.1625 21.7063 33.8215 21.853C33.481 21.9995 33.1086 22.0372 32.7498 21.963C32.3907 21.8889 32.0555 21.7047 31.7887 21.4277C31.5215 21.1502 31.3356 20.7923 31.2599 20.3971C31.1842 20.0019 31.2233 19.5926 31.371 19.2224C31.5185 18.8526 31.7659 18.5425 32.0762 18.3272Z" stroke="#00B7B7" stroke-width="2"/>
</svg>
