<svg width="46" height="46" viewBox="0 0 46 46" fill="none" xmlns="http://www.w3.org/2000/svg">
<circle cx="23" cy="23" r="22" stroke="#00B7B7" stroke-width="2" stroke-linecap="round" stroke-linejoin="round" stroke-dasharray="8 8"/>
<mask id="path-2-inside-1" fill="white">
<path d="M27.3333 17C27.9047 17 28.4632 16.8241 28.9383 16.4944C29.4134 16.1648 29.7837 15.6962 30.0023 15.1481C30.221 14.5999 30.2782 13.9967 30.1667 13.4147C30.0552 12.8328 29.7801 12.2982 29.3761 11.8787C28.9721 11.4591 28.4573 11.1734 27.8969 11.0576C27.3365 10.9419 26.7557 11.0013 26.2278 11.2284C25.6999 11.4554 25.2487 11.8399 24.9313 12.3333C24.6139 12.8266 24.4444 13.4067 24.4444 14C24.4444 14.7957 24.7488 15.5587 25.2906 16.1213C25.8324 16.6839 26.5672 17 27.3333 17ZM15.7778 20C15.7778 19.4067 15.6083 18.8266 15.2909 18.3333C14.9735 17.8399 14.5223 17.4554 13.9944 17.2284C13.4665 17.0013 12.8857 16.9419 12.3253 17.0576C11.7649 17.1734 11.2502 17.4591 10.8461 17.8787C10.4421 18.2982 10.167 18.8328 10.0555 19.4147C9.94404 19.9967 10.0013 20.5999 10.2199 21.1481C10.4386 21.6962 10.8088 22.1648 11.2839 22.4944C11.759 22.8241 12.3175 23 12.8889 23C13.6551 23 14.3899 22.6839 14.9316 22.1213C15.4734 21.5587 15.7778 20.7957 15.7778 20ZM33.1111 17C32.5397 17 31.9812 17.1759 31.5061 17.5056C31.0311 17.8352 30.6608 18.3038 30.4421 18.852C30.2235 19.4001 30.1663 20.0033 30.2777 20.5853C30.3892 21.1672 30.6643 21.7018 31.0684 22.1213C31.4724 22.5409 31.9871 22.8266 32.5475 22.9424C33.1079 23.0581 33.6888 22.9987 34.2166 22.7716C34.7445 22.5446 35.1957 22.1601 35.5131 21.6667C35.8306 21.1734 36 20.5933 36 20C36 19.2044 35.6956 18.4413 35.1539 17.8787C34.6121 17.3161 33.8773 17 33.1111 17ZM18.6667 17C19.238 17 19.7966 16.8241 20.2716 16.4944C20.7467 16.1648 21.117 15.6962 21.3357 15.1481C21.5543 14.5999 21.6115 13.9967 21.5 13.4147C21.3886 12.8328 21.1134 12.2982 20.7094 11.8787C20.3054 11.4591 19.7907 11.1734 19.2303 11.0576C18.6699 10.9419 18.089 11.0013 17.5611 11.2284C17.0333 11.4554 16.5821 11.8399 16.2646 12.3333C15.9472 12.8266 15.7778 13.4067 15.7778 14C15.7778 14.7957 16.0821 15.5587 16.6239 16.1213C17.1657 16.6839 17.9005 17 18.6667 17ZM23 18.5C21.8295 18.5003 20.6867 18.8706 19.7237 19.5615C18.7606 20.2524 18.0229 21.2314 17.6084 22.3682C17.3756 23.0037 16.9449 23.5401 16.3847 23.8922C15.4188 24.4988 14.6461 25.3872 14.1629 26.4466C13.6798 27.5061 13.5075 28.6897 13.6675 29.8502C13.8648 31.2798 14.552 32.5877 15.6029 33.5336C16.6539 34.4796 17.9981 35.0002 19.3889 35C20.2383 34.9999 21.0767 34.7996 21.8407 34.414C22.2025 34.2337 22.5986 34.1401 22.9998 34.1401C23.4011 34.1402 23.7972 34.2338 24.1589 34.4141C24.9229 34.7996 25.7611 34.9999 26.6105 35C28.0012 35.0002 29.3453 34.4797 30.3962 33.5339C31.4471 32.5881 32.1343 31.2805 32.3317 29.851C32.492 28.6905 32.3198 27.5068 31.8367 26.4472C31.3536 25.3876 30.581 24.4991 29.615 23.8923C29.055 23.5403 28.6244 23.0039 28.3917 22.3685C27.9773 21.2316 27.2395 20.2526 26.2764 19.5616C25.3134 18.8706 24.1706 18.5003 23 18.5Z"/>
</mask>
<path d="M27.3333 17C27.9047 17 28.4632 16.8241 28.9383 16.4944C29.4134 16.1648 29.7837 15.6962 30.0023 15.1481C30.221 14.5999 30.2782 13.9967 30.1667 13.4147C30.0552 12.8328 29.7801 12.2982 29.3761 11.8787C28.9721 11.4591 28.4573 11.1734 27.8969 11.0576C27.3365 10.9419 26.7557 11.0013 26.2278 11.2284C25.6999 11.4554 25.2487 11.8399 24.9313 12.3333C24.6139 12.8266 24.4444 13.4067 24.4444 14C24.4444 14.7957 24.7488 15.5587 25.2906 16.1213C25.8324 16.6839 26.5672 17 27.3333 17ZM15.7778 20C15.7778 19.4067 15.6083 18.8266 15.2909 18.3333C14.9735 17.8399 14.5223 17.4554 13.9944 17.2284C13.4665 17.0013 12.8857 16.9419 12.3253 17.0576C11.7649 17.1734 11.2502 17.4591 10.8461 17.8787C10.4421 18.2982 10.167 18.8328 10.0555 19.4147C9.94404 19.9967 10.0013 20.5999 10.2199 21.1481C10.4386 21.6962 10.8088 22.1648 11.2839 22.4944C11.759 22.8241 12.3175 23 12.8889 23C13.6551 23 14.3899 22.6839 14.9316 22.1213C15.4734 21.5587 15.7778 20.7957 15.7778 20ZM33.1111 17C32.5397 17 31.9812 17.1759 31.5061 17.5056C31.0311 17.8352 30.6608 18.3038 30.4421 18.852C30.2235 19.4001 30.1663 20.0033 30.2777 20.5853C30.3892 21.1672 30.6643 21.7018 31.0684 22.1213C31.4724 22.5409 31.9871 22.8266 32.5475 22.9424C33.1079 23.0581 33.6888 22.9987 34.2166 22.7716C34.7445 22.5446 35.1957 22.1601 35.5131 21.6667C35.8306 21.1734 36 20.5933 36 20C36 19.2044 35.6956 18.4413 35.1539 17.8787C34.6121 17.3161 33.8773 17 33.1111 17ZM18.6667 17C19.238 17 19.7966 16.8241 20.2716 16.4944C20.7467 16.1648 21.117 15.6962 21.3357 15.1481C21.5543 14.5999 21.6115 13.9967 21.5 13.4147C21.3886 12.8328 21.1134 12.2982 20.7094 11.8787C20.3054 11.4591 19.7907 11.1734 19.2303 11.0576C18.6699 10.9419 18.089 11.0013 17.5611 11.2284C17.0333 11.4554 16.5821 11.8399 16.2646 12.3333C15.9472 12.8266 15.7778 13.4067 15.7778 14C15.7778 14.7957 16.0821 15.5587 16.6239 16.1213C17.1657 16.6839 17.9005 17 18.6667 17ZM23 18.5C21.8295 18.5003 20.6867 18.8706 19.7237 19.5615C18.7606 20.2524 18.0229 21.2314 17.6084 22.3682C17.3756 23.0037 16.9449 23.5401 16.3847 23.8922C15.4188 24.4988 14.6461 25.3872 14.1629 26.4466C13.6798 27.5061 13.5075 28.6897 13.6675 29.8502C13.8648 31.2798 14.552 32.5877 15.6029 33.5336C16.6539 34.4796 17.9981 35.0002 19.3889 35C20.2383 34.9999 21.0767 34.7996 21.8407 34.414C22.2025 34.2337 22.5986 34.1401 22.9998 34.1401C23.4011 34.1402 23.7972 34.2338 24.1589 34.4141C24.9229 34.7996 25.7611 34.9999 26.6105 35C28.0012 35.0002 29.3453 34.4797 30.3962 33.5339C31.4471 32.5881 32.1343 31.2805 32.3317 29.851C32.492 28.6905 32.3198 27.5068 31.8367 26.4472C31.3536 25.3876 30.581 24.4991 29.615 23.8923C29.055 23.5403 28.6244 23.0039 28.3917 22.3685C27.9773 21.2316 27.2395 20.2526 26.2764 19.5616C25.3134 18.8706 24.1706 18.5003 23 18.5Z" stroke="#00B7B7" stroke-width="4" mask="url(#path-2-inside-1)"/>
</svg>
