<svg width="49" height="35" viewBox="0 0 49 35" fill="none" xmlns="http://www.w3.org/2000/svg">
<mask id="path-1-inside-1" fill="white">
<path d="M27.8192 4.6526C28.2568 4.6526 28.6847 4.52412 29.0486 4.2834C29.4125 4.04269 29.6961 3.70055 29.8636 3.30026C30.031 2.89996 30.0749 2.45949 29.9895 2.03454C29.9041 1.60959 29.6934 1.21925 29.3839 0.912876C29.0744 0.606504 28.6801 0.397862 28.2509 0.313334C27.8216 0.228807 27.3767 0.272189 26.9724 0.437997C26.5681 0.603804 26.2225 0.884589 25.9793 1.24484C25.7362 1.6051 25.6064 2.02864 25.6064 2.46192C25.6064 3.04292 25.8395 3.60013 26.2545 4.01096C26.6695 4.42179 27.2323 4.6526 27.8192 4.6526ZM18.968 6.84327C18.968 6.41 18.8382 5.98645 18.595 5.6262C18.3519 5.26594 18.0063 4.98516 17.602 4.81935C17.1976 4.65354 16.7527 4.61016 16.3235 4.69469C15.8942 4.77922 15.4999 4.98786 15.1905 5.29423C14.881 5.6006 14.6703 5.99094 14.5849 6.41589C14.4995 6.84084 14.5433 7.28132 14.7108 7.68161C14.8783 8.0819 15.1619 8.42404 15.5258 8.66476C15.8897 8.90547 16.3175 9.03395 16.7552 9.03395C17.342 9.03395 17.9049 8.80315 18.3199 8.39232C18.7348 7.98148 18.968 7.42428 18.968 6.84327ZM32.2448 4.6526C31.8072 4.6526 31.3793 4.78108 31.0154 5.02179C30.6515 5.26251 30.3679 5.60464 30.2004 6.00494C30.033 6.40523 29.9891 6.8457 30.0745 7.27065C30.1599 7.6956 30.3707 8.08595 30.6801 8.39232C30.9896 8.69869 31.3839 8.90733 31.8131 8.99186C32.2424 9.07639 32.6873 9.033 33.0916 8.8672C33.4959 8.70139 33.8415 8.4206 34.0847 8.06035C34.3278 7.70009 34.4576 7.27655 34.4576 6.84327C34.4576 6.26227 34.2245 5.70506 33.8095 5.29423C33.3945 4.8834 32.8317 4.6526 32.2448 4.6526ZM21.1808 4.6526C21.6184 4.6526 22.0463 4.52412 22.4101 4.2834C22.774 4.04269 23.0577 3.70055 23.2251 3.30026C23.3926 2.89996 23.4364 2.45949 23.3511 2.03454C23.2657 1.60959 23.0549 1.21925 22.7455 0.912876C22.436 0.606504 22.0417 0.397862 21.6125 0.313334C21.1832 0.228807 20.7383 0.272189 20.334 0.437997C19.9296 0.603804 19.584 0.884589 19.3409 1.24484C19.0978 1.6051 18.968 2.02864 18.968 2.46192C18.968 3.04292 19.2011 3.60013 19.6161 4.01096C20.0311 4.42179 20.5939 4.6526 21.1808 4.6526ZM24.5 5.74794C23.6034 5.74818 22.7281 6.01854 21.9904 6.52307C21.2528 7.02761 20.6876 7.74244 20.3702 8.57256C20.1919 9.03664 19.8619 9.42837 19.4329 9.68543C18.693 10.1284 18.1011 10.7771 17.731 11.5508C17.361 12.3244 17.229 13.1888 17.3516 14.0361C17.5027 15.0801 18.029 16.0351 18.834 16.7259C19.639 17.4167 20.6687 17.7968 21.734 17.7967C22.3846 17.7966 23.0268 17.6503 23.612 17.3688C23.8891 17.2371 24.1925 17.1688 24.4998 17.1688C24.8072 17.1688 25.1106 17.2372 25.3877 17.3688C25.9728 17.6503 26.6149 17.7966 27.2655 17.7967C28.3307 17.7968 29.3603 17.4167 30.1652 16.7261C30.9702 16.0355 31.4966 15.0806 31.6478 14.0367C31.7705 13.1893 31.6387 12.3249 31.2687 11.5512C30.8986 10.7774 30.3068 10.1286 29.5669 9.68551C29.1379 9.42848 28.8081 9.03682 28.6299 8.57283C28.3124 7.74264 27.7473 7.02774 27.0096 6.52316C26.272 6.01857 25.3966 5.74818 24.5 5.74794Z"/>
</mask>
<path d="M27.8192 4.6526C28.2568 4.6526 28.6847 4.52412 29.0486 4.2834C29.4125 4.04269 29.6961 3.70055 29.8636 3.30026C30.031 2.89996 30.0749 2.45949 29.9895 2.03454C29.9041 1.60959 29.6934 1.21925 29.3839 0.912876C29.0744 0.606504 28.6801 0.397862 28.2509 0.313334C27.8216 0.228807 27.3767 0.272189 26.9724 0.437997C26.5681 0.603804 26.2225 0.884589 25.9793 1.24484C25.7362 1.6051 25.6064 2.02864 25.6064 2.46192C25.6064 3.04292 25.8395 3.60013 26.2545 4.01096C26.6695 4.42179 27.2323 4.6526 27.8192 4.6526ZM18.968 6.84327C18.968 6.41 18.8382 5.98645 18.595 5.6262C18.3519 5.26594 18.0063 4.98516 17.602 4.81935C17.1976 4.65354 16.7527 4.61016 16.3235 4.69469C15.8942 4.77922 15.4999 4.98786 15.1905 5.29423C14.881 5.6006 14.6703 5.99094 14.5849 6.41589C14.4995 6.84084 14.5433 7.28132 14.7108 7.68161C14.8783 8.0819 15.1619 8.42404 15.5258 8.66476C15.8897 8.90547 16.3175 9.03395 16.7552 9.03395C17.342 9.03395 17.9049 8.80315 18.3199 8.39232C18.7348 7.98148 18.968 7.42428 18.968 6.84327ZM32.2448 4.6526C31.8072 4.6526 31.3793 4.78108 31.0154 5.02179C30.6515 5.26251 30.3679 5.60464 30.2004 6.00494C30.033 6.40523 29.9891 6.8457 30.0745 7.27065C30.1599 7.6956 30.3707 8.08595 30.6801 8.39232C30.9896 8.69869 31.3839 8.90733 31.8131 8.99186C32.2424 9.07639 32.6873 9.033 33.0916 8.8672C33.4959 8.70139 33.8415 8.4206 34.0847 8.06035C34.3278 7.70009 34.4576 7.27655 34.4576 6.84327C34.4576 6.26227 34.2245 5.70506 33.8095 5.29423C33.3945 4.8834 32.8317 4.6526 32.2448 4.6526ZM21.1808 4.6526C21.6184 4.6526 22.0463 4.52412 22.4101 4.2834C22.774 4.04269 23.0577 3.70055 23.2251 3.30026C23.3926 2.89996 23.4364 2.45949 23.3511 2.03454C23.2657 1.60959 23.0549 1.21925 22.7455 0.912876C22.436 0.606504 22.0417 0.397862 21.6125 0.313334C21.1832 0.228807 20.7383 0.272189 20.334 0.437997C19.9296 0.603804 19.584 0.884589 19.3409 1.24484C19.0978 1.6051 18.968 2.02864 18.968 2.46192C18.968 3.04292 19.2011 3.60013 19.6161 4.01096C20.0311 4.42179 20.5939 4.6526 21.1808 4.6526ZM24.5 5.74794C23.6034 5.74818 22.7281 6.01854 21.9904 6.52307C21.2528 7.02761 20.6876 7.74244 20.3702 8.57256C20.1919 9.03664 19.8619 9.42837 19.4329 9.68543C18.693 10.1284 18.1011 10.7771 17.731 11.5508C17.361 12.3244 17.229 13.1888 17.3516 14.0361C17.5027 15.0801 18.029 16.0351 18.834 16.7259C19.639 17.4167 20.6687 17.7968 21.734 17.7967C22.3846 17.7966 23.0268 17.6503 23.612 17.3688C23.8891 17.2371 24.1925 17.1688 24.4998 17.1688C24.8072 17.1688 25.1106 17.2372 25.3877 17.3688C25.9728 17.6503 26.6149 17.7966 27.2655 17.7967C28.3307 17.7968 29.3603 17.4167 30.1652 16.7261C30.9702 16.0355 31.4966 15.0806 31.6478 14.0367C31.7705 13.1893 31.6387 12.3249 31.2687 11.5512C30.8986 10.7774 30.3068 10.1286 29.5669 9.68551C29.1379 9.42848 28.8081 9.03682 28.6299 8.57283C28.3124 7.74264 27.7473 7.02774 27.0096 6.52316C26.272 6.01857 25.3966 5.74818 24.5 5.74794Z" stroke="#00B7B7" stroke-width="4" mask="url(#path-1-inside-1)"/>
<path d="M10.0648 31.5073V33.249C10.0648 33.514 10.276 33.7289 10.5366 33.7289H20.4435C20.704 33.7289 20.9153 33.514 20.9153 33.249V31.3104L20.1112 23.3651C20.0975 23.2298 20.028 23.1067 19.9199 23.0266L10.7148 16.1967C10.332 15.9127 9.80886 15.9275 9.4421 16.2327C9.05173 16.5576 8.94648 17.1204 9.19229 17.5684L10.8851 20.6535C11.1083 21.0604 10.688 21.5195 10.2732 21.322L6.32662 19.4429C6.1608 19.3639 6.05486 19.1945 6.05486 19.0083V11.5155C5.48875 9.02017 3.14569 8.87621 2.04492 9.11615L1.00166 21.7327C0.990109 21.8724 1.0392 22.0103 1.13603 22.11L9.92878 31.1702C10.0159 31.26 10.0648 31.3811 10.0648 31.5073Z" stroke="#00B7B7" stroke-width="2"/>
<path d="M38.9352 31.5073V33.249C38.9352 33.514 38.724 33.7289 38.4634 33.7289H28.5565C28.296 33.7289 28.0847 33.514 28.0847 33.249V31.3104L28.8888 23.3651C28.9025 23.2298 28.972 23.1067 29.0801 23.0266L38.2852 16.1967C38.668 15.9127 39.1911 15.9275 39.5579 16.2327C39.9483 16.5576 40.0535 17.1204 39.8077 17.5684L38.1149 20.6535C37.8917 21.0604 38.312 21.5195 38.7268 21.322L42.6734 19.4429C42.8392 19.3639 42.9451 19.1945 42.9451 19.0083V11.5155C43.5112 9.02017 45.8543 8.87621 46.9551 9.11615L47.9983 21.7327C48.0099 21.8724 47.9608 22.0103 47.864 22.11L39.0712 31.1702C38.9841 31.26 38.9352 31.3811 38.9352 31.5073Z" stroke="#00B7B7" stroke-width="2"/>
</svg>
